<?xml version="1.0" encoding="UTF-8" standalone="no"?>
<!-- Created with Inkscape (http://www.inkscape.org/) -->

<svg
   width="420mm"
   height="594mm"
   viewBox="0 0 1587.4016 2245.0393"
   version="1.1"
   id="svg1"
   xmlns="http://www.w3.org/2000/svg"
   xmlns:svg="http://www.w3.org/2000/svg">
  <defs
     id="defs1" />
  <g
     id="layer1">
    <path
       style="fill:#3F3D42;stroke-width:2.17522"
       d="m 590.36847,1789.4838 c -0.79135,-0.1384 -2.97492,-0.5301 -4.85237,-0.8701 -3.66323,-0.6636 -144.64055,-58.8728 -148.23776,-61.2072 -9.91862,-6.4364 -18.87832,-18.2136 -20.76306,-27.2924 -0.95947,-4.6217 -0.37344,-13.8486 1.19144,-18.7595 0.70249,-2.2045 17.18434,-35.8215 36.62635,-74.7046 19.44202,-38.883 35.20881,-70.9233 35.03736,-71.2008 -0.1714,-0.2774 -4.90492,-4.0682 -10.51881,-8.4241 -51.24728,-39.7633 -95.98505,-83.0572 -131.25795,-127.0221 -5.35935,-6.6801 -8.0513,-9.6042 -8.68099,-9.43 -0.50199,0.139 -33.5451,13.642 -73.42909,30.0068 -39.88403,16.365 -74.71779,30.4321 -77.40838,31.2603 -4.31369,1.3278 -5.91248,1.5106 -13.52487,1.5456 -7.98278,0.037 -8.95079,-0.076 -12.85417,-1.5022 -2.32169,-0.848 -5.67751,-2.402 -7.45736,-3.4531 -3.91837,-2.3141 -11.17425,-9.3751 -14.08789,-13.7095 -2.52926,-3.7625 -60.223862,-141.8157 -61.748592,-147.7537 -1.35469,-5.2757 -1.36258,-15.2898 -0.0152,-20.2668 2.91747,-10.7832 9.41896,-19.2527 18.925774,-24.6549 1.33084,-0.7562 36.476548,-16.1476 78.101498,-34.2032 41.62497,-18.0555 75.76337,-32.8989 75.86311,-32.9854 0.0997,-0.086 -0.22361,-5.0394 -0.71852,-11.0068 -4.8019,-57.8988 -5.00938,-119.7018 -0.5887,-175.36761 0.49915,-6.2853 0.8272,-11.5063 0.72896,-11.6021 -0.0983,-0.096 -33.71741,-14.0741 -74.70931,-31.0629 -81.383948,-33.72904 -79.767798,-32.97294 -87.820532,-41.08529 -4.48628,-4.51953 -7.18002,-8.6486 -9.3426,-14.32067 -1.32043,-3.46319 -1.48077,-4.71447 -1.49286,-11.64954 -0.0105,-6.35123 0.22185,-8.59254 1.27593,-12.27727 0.70924,-2.47922 14.01626,-34.98208 29.571162,-72.2286 22.60669,-54.13216 28.89118,-68.65191 31.3192,-72.36032 6.27127,-9.57842 14.87076,-17.05617 22.75876,-19.79007 6.94182,-2.40599 16.02643,-2.16798 24.37539,0.63855 1.90078,0.63895 34.72902,16.93651 72.95167,36.21678 38.22264,19.28028 69.59131,35.05506 69.70816,35.05506 0.11681,0 3.03008,-3.30113 6.47385,-7.33586 46.33209,-54.28281 90.63807,-99.76152 130.10422,-133.54794 5.43869,-4.65599 9.90621,-8.77049 9.92783,-9.14332 0.0217,-0.37283 -13.5338,-33.91165 -30.12318,-74.53071 -16.58936,-40.61907 -30.56491,-75.40677 -31.05676,-77.30602 -4.39009,-16.95161 -1.36162,-29.76998 9.55956,-40.46184 7.66974,-7.50866 5.55008,-6.50396 79.86052,-37.85354 43.4107,-18.31381 71.28842,-29.76708 74.53072,-30.62012 6.53958,-1.72058 15.99896,-1.93948 21.51069,-0.49784 6.38359,1.66972 11.35988,4.67945 16.76184,10.13776 2.69058,2.71866 5.71853,6.35984 6.72874,8.09152 1.01024,1.73164 15.73806,37.20526 32.72848,78.83024 16.99045,41.62498 30.95231,75.75108 31.02636,75.83579 0.074,0.0846 2.0509,-0.24945 4.39298,-0.74258 14.24354,-2.99898 40.35755,-6.7869 60.08449,-8.71547 14.4841,-1.416 52.24241,-1.41816 65.89782,-0.005 22.13735,2.29297 43.39087,6.22597 62.31247,11.53111 l 5.04753,1.4152 0.78036,-1.53148 c 0.42918,-0.84233 14.57637,-35.7178 31.43827,-77.50104 33.4163,-82.80448 31.9143,-79.51655 39.9918,-87.53911 4.5023,-4.47162 9.1137,-7.44936 14.7567,-9.52898 3.162,-1.16528 4.7031,-1.34698 11.4246,-1.34698 6.5297,0 8.4585,0.21469 12.08606,1.34561 2.374,0.74008 35.52453,14.54608 73.66753,30.67997 49.5187,20.94562 70.4208,30.05499 73.0919,31.85426 4.5476,3.06328 10.3783,8.84488 13.2934,13.18121 5.513,8.20129 6.8795,18.00775 4.1701,29.9241 -0.5162,2.27038 -14.6003,37.88284 -31.6425,80.00964 -16.8917,41.75499 -30.7104,76.32976 -30.7084,76.83283 0,0.50309 3.6811,3.89305 8.1758,7.53327 51.6208,41.80784 96.4979,85.79339 128.4805,125.92839 4.0999,5.14486 7.7257,9.24663 8.0575,9.11501 0.3317,-0.1316 33.7534,-13.77366 74.2706,-30.31569 40.5169,-16.54203 75.6098,-30.56407 77.9838,-31.16012 12.9271,-3.24551 25.0797,-1.43047 34.6669,5.17772 5.2048,3.58754 11.6794,11.76296 14.8314,18.72752 6.8507,15.13684 58.2512,138.42492 58.7017,140.80044 0.84,4.42926 0.6835,15.20584 -0.2884,19.85051 -1.3835,6.61264 -4.9185,13.01292 -10.0026,18.10998 -2.4122,2.41841 -5.812,5.32643 -7.555,6.46225 -1.9252,1.25461 -32.5333,13.97335 -77.9838,32.40518 -41.1481,16.687 -75.3519,30.5471 -76.0081,30.8001 -1.1676,0.4502 -1.1781,0.595 -0.4884,6.6999 2.4497,21.68351 3.6692,43.93071 4.0804,74.43981 0.4821,35.7685 -0.7172,68.16 -3.8864,104.9643 -0.6508,7.5588 -0.9709,13.9423 -0.7112,14.1856 0.2597,0.2433 34.529,14.2252 76.154,31.0707 81.4512,32.9633 78.5109,31.6306 86.7133,39.3035 10.6329,9.9467 14.8737,21.5473 12.7057,34.7558 -0.8784,5.3514 -2.6991,9.8913 -28.5716,71.2485 -17.6468,41.8494 -28.4222,66.6916 -29.816,68.7391 -3.1305,4.5989 -9.7158,10.9103 -14.0202,13.4372 -7.6451,4.4879 -17.4078,6.051 -26.7234,4.2785 -3.4821,-0.6626 -23.2437,-8.393 -81.0893,-31.721 -42.0668,-16.9646 -76.691,-30.8449 -76.9425,-30.8449 -0.2516,0 -3.7664,4.338 -7.8106,9.6401 -20.4926,26.8658 -45.525,54.6106 -70.6832,78.3417 -16.1141,15.2001 -28.5638,26.1484 -29.0944,25.5857 -0.4422,-0.4688 -32.7496,-80.2309 -33.1789,-81.9135 -0.1323,-0.5184 3.87,-5.0027 10.0161,-11.2228 51.0617,-51.6755 87.8057,-111.4292 110.4181,-179.5644 42.4126,-127.7963 26.9439,-267.04961 -42.5145,-382.72538 -27.2461,-45.37538 -64.6265,-88.0765 -106.3079,-121.43956 -55.6064,-44.50875 -120.03969,-75.31188 -189.50728,-90.59609 -95.23771,-20.95413 -196.11984,-10.7358 -285.30247,28.89824 -67.15092,29.84286 -126.6908,75.70633 -172.37369,132.77919 -44.50911,55.60641 -75.31224,120.03954 -90.59647,189.50719 -20.95413,95.23761 -10.7358,196.11981 28.89826,285.30241 29.84283,67.151 75.70632,126.6908 132.77919,172.3737 71.26786,57.0451 156.41943,91.2495 247.77115,99.5267 12.93703,1.1722 39.45956,2.0984 47.60229,1.6623 l 6.49039,-0.3476 17.65267,43.6762 17.65267,43.6763 -3.2645,0.4322 c -42.29621,5.6003 -90.99493,3.3113 -132.75804,-6.24 -10.95744,-2.506 -12.32852,-2.7745 -12.62998,-2.473 -0.16163,0.1616 -13.92139,33.8112 -30.57706,74.7767 -16.65568,40.9656 -30.7564,75.4105 -31.33489,76.5445 -1.80231,3.5328 -7.70861,11.0435 -11.55727,14.6967 -4.25551,4.0394 -7.44825,6.0173 -12.35727,7.6551 -3.39393,1.1324 -12.23669,1.9819 -15.2101,1.4613 z m 383.41064,-0.8283 c -7.7781,-2.0376 -13.5438,-6.1704 -17.868,-12.8075 -1.4986,-2.3001 -6.1241,-12.8926 -12.511,-28.6504 -71.97757,-177.5834 -87.13821,-215.1051 -87.13821,-215.6608 0,-0.2701 3.04305,-0.9419 6.76239,-1.4928 6.35381,-0.9412 29.56032,-5.4135 29.91128,-5.7646 0.17881,-0.1787 -22.64871,-56.733 -23.06965,-57.1539 -0.14578,-0.1458 -5.79136,0.659 -12.54585,1.7881 -44.46135,7.4328 -88.73174,7.4349 -132.77784,0 -70.62539,-11.9116 -134.5249,-41.4846 -190.86314,-88.3322 -11.96186,-9.9468 -38.07577,-36.0606 -48.02258,-48.0226 -29.76373,-35.7934 -51.32117,-72.3656 -67.50997,-114.531 -25.47224,-66.3449 -32.68534,-138.7892 -20.82224,-209.1268 11.91166,-70.62541 41.48459,-134.52487 88.33221,-190.8631 9.94681,-11.96186 36.06072,-38.07578 48.02258,-48.02255 35.79342,-29.76375 72.36575,-51.3212 114.53104,-67.51 66.34491,-25.47223 138.7893,-32.68535 209.12679,-20.82224 70.62539,11.91165 134.52489,41.48462 190.86328,88.33224 11.9618,9.94677 38.0758,36.06069 48.0225,48.02255 29.7638,35.79341 51.3212,72.36573 67.51,114.53099 25.4723,66.3449 32.6854,138.78941 20.8223,209.12681 -10.61,62.9074 -36.0706,122.2861 -74.189,173.0218 -11.7462,15.634 -21.4401,26.6894 -37.3789,42.6282 -20.5578,20.5577 -39.1813,35.9803 -59.786,49.5097 -4.2937,2.8194 -7.8229,5.4077 -7.8423,5.752 -0.032,0.5727 21.9678,55.4577 22.7134,56.6641 0.5315,0.8601 17.1245,-9.7176 31.7952,-20.2685 3.8847,-2.7939 7.2514,-5.0747 7.4818,-5.0685 0.2304,0.012 7.8823,18.5884 17.0042,41.294 9.1219,22.7055 30.0813,74.6854 46.5762,115.5106 16.495,40.8253 30.5838,75.9326 31.3084,78.0164 2.6085,7.5008 2.7928,17.5271 0.465,25.3059 -2.7644,9.2379 -10.5575,18.9321 -18.3899,22.8761 -1.2662,0.6375 -34.9344,14.782 -74.8185,31.4321 -59.4677,24.8256 -73.24133,30.3763 -76.54509,30.8477 -6.3967,0.9127 -14.4272,0.6748 -19.1704,-0.5679 z M 813.09739,1401.9182 c 71.63887,-5.2591 137.89132,-32.5035 191.93821,-78.929 8.8671,-7.6168 25.9721,-24.7218 33.5888,-33.5888 46.4256,-54.0469 73.67,-120.2993 78.9291,-191.9381 1.2362,-16.8392 0.6244,-41.7622 -1.4695,-59.8549 -7.5011,-64.81861 -34.5755,-126.47506 -77.4596,-176.39901 -7.6167,-8.86704 -24.7217,-25.97203 -33.5888,-33.58873 -46.60649,-40.03443 -103.89889,-66.52556 -163.73746,-75.70973 -16.82811,-2.58281 -25.55828,-3.29582 -44.31551,-3.61927 -23.62059,-0.4073 -38.81266,0.65618 -60.14254,4.21016 -58.67423,9.77627 -114.36842,35.92486 -159.99648,75.11884 -8.86709,7.6167 -25.97205,24.72169 -33.58876,33.58873 -40.03444,46.60649 -66.52557,103.8989 -75.70974,163.73741 -2.58284,16.8281 -3.29582,25.5583 -3.61926,44.3155 -0.40731,23.6207 0.65618,38.8127 4.21015,60.1426 9.77625,58.6741 35.92487,114.3683 75.11885,159.9965 7.61671,8.867 24.72167,25.972 33.58876,33.5888 46.60643,40.0343 103.88096,66.5175 163.7374,75.7106 8.99468,1.3815 22.98636,2.9647 29.92733,3.3864 7.61371,0.4625 35.49827,0.3526 42.58905,-0.168 z m 117.40752,-82.3445 c -19.53221,-1.3366 -33.70877,-4.4183 -43.96408,-9.5568 -7.69814,-3.8572 -17.94119,-11.1944 -22.79713,-16.3299 -1.90144,-2.0109 -6.37938,-7.0245 -7.54367,-8.4462 -3.70789,-4.5272 -8.79738,-13.5532 -11.44666,-20.3003 -0.68361,-1.741 -1.58293,-3.9424 -1.9985,-4.892 -0.41559,-0.9497 -2.23709,-5.4819 -4.04769,-10.0717 -1.81066,-4.5899 -3.498,-8.8632 -3.74962,-9.4963 -0.94012,-2.3648 -5.16138,-13.4801 -7.75919,-20.4312 -1.47876,-3.9567 -3.42433,-9.1365 -4.32347,-11.5104 -0.89915,-2.3741 -3.35699,-9.1078 -5.46192,-14.9637 -2.10488,-5.8561 -4.22373,-11.6833 -4.7085,-12.9494 -0.48477,-1.2662 -1.34392,-3.7265 -1.9092,-5.4675 -0.56534,-1.741 -1.42811,-4.2014 -1.91736,-5.4676 -0.48921,-1.2661 -2.34085,-6.4459 -4.11474,-11.5104 -1.77383,-5.0647 -3.47318,-9.6582 -3.77632,-10.2078 -0.30307,-0.5496 -0.55106,-1.3949 -0.55106,-1.8784 0,-0.4833 -0.25082,-1.3286 -0.5574,-1.8782 -0.30659,-0.5496 -0.93834,-2.1648 -1.40395,-3.5892 -0.46554,-1.4245 -1.79086,-5.1797 -2.94513,-8.3452 -1.15428,-3.1654 -2.57405,-7.1796 -3.15504,-8.9206 -0.58105,-1.741 -1.86747,-5.3669 -2.85882,-8.0575 -2.31039,-6.2708 -5.81403,-16.2331 -8.84797,-25.1585 -1.82368,-5.3649 -2.62804,-7.0344 -3.39665,-7.0502 -0.55394,-0.012 -1.00717,0.3012 -1.00717,0.6945 0,0.606 -7.54325,20.3965 -10.91504,28.6367 -0.58284,1.4244 -2.01964,5.0501 -3.19279,8.0573 -1.17321,3.0071 -2.34159,5.9856 -2.59649,6.6185 -0.25485,0.6331 -1.90787,4.9064 -3.6733,9.4963 -1.76549,4.5898 -6.6097,17.0212 -10.76488,27.6253 -4.15526,10.604 -7.75598,19.9608 -8.00161,20.7926 -0.2457,0.832 -0.88868,2.5154 -1.42892,3.741 -1.26109,2.8609 -1.63208,3.7934 -3.17645,7.9837 -0.69995,1.8991 -1.63167,4.2692 -2.07045,5.2667 -0.43879,0.9975 -0.79774,2.1759 -0.79774,2.6187 0,0.4427 -0.21934,1.051 -0.48736,1.3517 -0.26808,0.3008 -1.32872,2.7482 -2.35695,5.4388 -1.0283,2.6906 -2.08381,5.4099 -2.34557,6.043 -0.26181,0.6331 -2.71763,6.9782 -5.45738,14.1004 -2.73979,7.1221 -5.20154,13.4673 -5.47054,14.1004 -0.26906,0.6331 -2.34148,5.9424 -4.60531,11.7983 -2.26389,5.856 -4.51041,11.5538 -4.99235,12.6617 -0.48189,1.1077 -1.10012,2.5322 -1.37385,3.1653 -7.61184,17.6049 -13.39194,29.3142 -16.86107,34.1567 -2.44558,3.4138 -4.06017,4.0982 -11.19796,4.7468 -17.64701,1.6036 -76.35126,1.1251 -85.88708,-0.7 -3.57205,-0.6838 -5.89893,-2.4097 -7.90454,-5.8629 -1.33523,-2.2992 -1.71081,-6.4894 -0.74573,-8.3201 0.28974,-0.5498 2.13036,-5.0137 4.09027,-9.9201 1.95992,-4.9064 4.18322,-10.2881 4.94069,-11.9592 0.75746,-1.6712 1.3772,-3.1527 1.3772,-3.2922 0,-0.1395 0.62114,-1.621 1.38031,-3.2923 0.75915,-1.6712 2.05682,-4.6559 2.88373,-6.6327 0.82689,-1.9768 2.11847,-4.9552 2.87019,-6.6186 2.96182,-6.5539 4.06687,-9.0379 6.97808,-15.686 1.66339,-3.7984 3.70087,-8.3955 4.52773,-10.2156 2.99477,-6.5919 4.55024,-10.0273 6.97091,-15.3953 1.35606,-3.0071 3.14099,-6.9567 3.96653,-8.7768 0.82554,-1.82 2.1752,-4.7985 2.99922,-6.6186 5.38067,-11.8845 10.54153,-23.1295 12.95861,-28.235 1.54492,-3.2635 2.80896,-6.0184 2.80896,-6.1221 0,-0.1039 1.26019,-2.8725 2.80039,-6.1526 2.66227,-5.6698 3.49642,-7.4663 7.84695,-16.8991 2.02169,-4.3834 4.87673,-10.4808 8.48877,-18.129 2.1764,-4.6084 3.23636,-6.9056 7.03756,-15.2515 0.86499,-1.8993 2.73827,-5.9135 4.1628,-8.9206 1.42455,-3.0072 3.70151,-7.9279 5.05993,-10.9351 1.35842,-3.007 3.92096,-8.5372 5.69451,-12.2891 1.77357,-3.7517 3.22465,-6.8934 3.22465,-6.9814 0,-0.088 1.55392,-3.438 3.45317,-7.4444 1.89922,-4.0064 3.45315,-7.3842 3.45315,-7.506 0,-0.1221 1.31695,-3.026 2.92656,-6.4532 1.6096,-3.4272 3.44941,-7.3967 4.08846,-8.8211 0.63903,-1.4245 1.88507,-4.1439 2.76893,-6.0432 0.88388,-1.8991 2.18986,-4.748 2.90215,-6.3307 1.51528,-3.3668 3.81623,-8.4342 5.94516,-13.0932 3.16574,-6.9279 8.38365,-18.56361 12.58182,-28.05701 0.62992,-1.4244 1.71882,-3.8848 2.41975,-5.4675 0.70099,-1.5827 1.87909,-4.3954 2.61808,-6.2504 1.76042,-4.4192 2.00767,-3.7002 -8.93212,-25.9791 -8.18572,-16.6704 -11.98288,-23.35833 -17.08155,-30.08597 -11.64132,-15.3607 -23.27022,-20.1943 -44.66716,-18.56613 -4.64574,0.35352 -8.8353,0.75173 -9.31011,0.88494 -1.82051,0.51074 -24.37466,3.21336 -27.22772,3.26263 -2.63524,0.0455 -4.23827,-1.28062 -6.13231,-5.07306 -4.28995,-8.58981 -5.34584,-27.73468 -2.26498,-41.06785 1.48525,-6.4277 1.98836,-7.96439 3.58018,-10.935 0.93292,-1.74096 2.3737,-3.91111 3.20174,-4.82255 8.13617,-8.95549 28.55209,-12.73101 68.84221,-12.73101 22.27785,0 26.49628,0.32804 41.15012,3.2001 33.04785,6.4771 56.94061,22.40375 77.22143,51.47493 6.83605,9.79902 11.55203,18.59745 19.74292,36.83371 0.42653,0.94964 2.36577,5.48191 4.30944,10.07176 1.94366,4.5898 3.88406,9.1221 4.31196,10.0717 0.4279,0.9496 3.28873,7.9423 6.35733,15.5392 3.06865,7.597 5.96839,14.7191 6.44388,15.827 1.24355,2.8975 1.36078,3.1899 6.23037,15.5392 2.43396,6.1726 4.63685,11.7408 4.89526,12.3739 0.25847,0.633 2.45301,6.33081 4.87678,12.66161 2.42383,6.3307 4.62528,12.0285 4.89222,12.6615 0.26686,0.6331 1.50827,3.8704 2.7586,7.1941 1.25034,3.3237 3.49161,9.2804 4.98062,13.2371 1.48894,3.9568 2.92045,7.7121 3.18111,8.3451 0.26065,0.6331 0.99226,2.5756 1.6258,4.3165 0.63349,1.7409 1.79473,4.8488 2.58043,6.9063 0.78578,2.0575 2.76731,7.3667 4.40342,11.7983 4.45095,12.0554 5.28046,14.278 5.79975,15.5393 0.26066,0.6331 1.68192,4.3884 3.15838,8.345 4.0269,10.7916 6.09552,16.273 6.62477,17.5536 0.6084,1.4722 7.77135,20.2873 9.31197,24.46 0.6428,1.7409 1.54432,4.0163 2.00329,5.0564 0.88027,1.9947 3.85138,9.7656 6.31843,16.5259 0.80862,2.2156 1.70189,4.2747 1.98505,4.5753 0.28317,0.3007 0.51487,0.8863 0.51487,1.3012 0,0.415 0.5438,1.9819 1.2084,3.482 1.2277,2.7709 2.035,4.6829 2.8529,6.7561 9.1659,23.2371 17.0431,41.9959 21.0971,50.2397 3.0613,6.2256 5.7525,8.9 11.9631,11.889 5.8592,2.8199 12.1561,3.9694 30.2152,5.5153 4.2733,0.3658 8.07226,0.7539 8.44226,0.8623 0.9739,0.2855 1.351,6.5851 1.6838,28.1239 0.1986,12.8492 0.098,19.1285 -0.3126,19.5391 -0.3328,0.3328 -0.6051,1.2692 -0.6051,2.0809 0,3.1553 -2.2099,7.7368 -4.94276,10.2472 -9.364,8.6019 -34.3818,12.9826 -62.9693,11.0261 z"
       id="path1" />
  </g>
</svg>
